<svg width="76" height="37" viewBox="0 0 76 37" fill="none" xmlns="http://www.w3.org/2000/svg">
<g opacity="0.2">
<path d="M63.2025 1V0.408077L62.955 0.408077L62.7812 0.584186L63.2025 1ZM53.0239 11.3122L52.6027 10.8964L52.1922 11.3122L52.6027 11.728L53.0239 11.3122ZM53.0239 25.6887L52.6027 25.2729L52.1922 25.6887L52.6027 26.1045L53.0239 25.6887ZM63.2016 36L62.7803 36.4158L62.9541 36.5919H63.2016V36ZM74.2217 32.7882L74.6429 33.204L75.0534 32.7882L74.6429 32.3724L74.2217 32.7882ZM71.0515 36V36.5919H71.299L71.4728 36.4158L71.0515 36ZM74.2217 4.21265L74.6429 4.62846L75.0534 4.21265L74.6429 3.79684L74.2217 4.21265ZM71.0507 1.00001L71.4719 0.584192L71.2981 0.408083L71.0507 0.408083V1.00001ZM62.7812 0.584186L52.6027 10.8964L53.4452 11.728L63.6237 1.41581L62.7812 0.584186ZM52.6027 11.728L59.6978 18.9163L60.5403 18.0846L53.4452 10.8964L52.6027 11.728ZM59.6978 18.0846L52.6027 25.2729L53.4452 26.1045L60.5403 18.9163L59.6978 18.0846ZM52.6027 26.1045L62.7803 36.4158L63.6229 35.5842L53.4452 25.2729L52.6027 26.1045ZM59.6978 18.9163L73.8004 33.204L74.6429 32.3724L60.5403 18.0846L59.6978 18.9163ZM73.8004 32.3724L70.6302 35.5842L71.4728 36.4158L74.6429 33.204L73.8004 32.3724ZM63.2016 36.5919L71.0515 36.5919L71.0515 35.4081L63.2016 35.4081L63.2016 36.5919ZM60.5403 18.9163L74.6429 4.62846L73.8004 3.79684L59.6978 18.0846L60.5403 18.9163ZM74.6429 3.79684L71.4719 0.584192L70.6294 1.41582L73.8004 4.62846L74.6429 3.79684ZM71.0507 0.408083L63.2025 0.408077L63.2025 1.59192L71.0507 1.59193V0.408083Z" fill="white"/>
<path d="M24.4997 4.21264L24.0784 3.79683L23.668 4.21264L24.0784 4.62846L24.4997 4.21264ZM27.6707 1L27.6707 0.408077L27.4232 0.408077L27.2494 0.584186L27.6707 1ZM35.6941 1L36.1153 0.584189L35.9415 0.40808L35.6941 0.40808L35.6941 1ZM52.9677 18.5004L53.389 18.9162L53.7994 18.5004L53.389 18.0846L52.9677 18.5004ZM35.6949 36V36.5919H35.9424L36.1162 36.4158L35.6949 36ZM27.6698 36L27.2485 36.4158L27.4224 36.5919H27.6698V36ZM24.4997 32.7882L24.0784 32.3724L23.668 32.7882L24.0784 33.204L24.4997 32.7882ZM38.6023 18.5004L39.0236 18.9162L39.434 18.5004L39.0236 18.0846L38.6023 18.5004ZM24.9209 4.62846L28.0919 1.41581L27.2494 0.584186L24.0784 3.79683L24.9209 4.62846ZM27.6707 1.59192L35.6941 1.59193L35.6941 0.40808L27.6707 0.408077L27.6707 1.59192ZM35.2728 1.41582L52.5464 18.9162L53.389 18.0846L36.1153 0.584189L35.2728 1.41582ZM52.5464 18.0846L35.2736 35.5842L36.1162 36.4158L53.389 18.9162L52.5464 18.0846ZM35.6949 35.4081H27.6698V36.5919H35.6949V35.4081ZM28.0911 35.5842L24.9209 32.3724L24.0784 33.204L27.2485 36.4158L28.0911 35.5842ZM24.9209 33.204L39.0236 18.9162L38.181 18.0846L24.0784 32.3724L24.9209 33.204ZM39.0236 18.0846L24.9209 3.79683L24.0784 4.62846L38.181 18.9162L39.0236 18.0846Z" fill="white"/>
<path d="M1.44141 4.21264L1.02013 3.79683L0.609707 4.21264L1.02013 4.62846L1.44141 4.21264ZM4.61241 1L4.61241 0.408077L4.36496 0.408077L4.19114 0.584186L4.61241 1ZM12.6358 1L13.0571 0.584189L12.8833 0.40808L12.6358 0.40808L12.6358 1ZM29.9094 18.5004L30.3307 18.9162L30.7411 18.5004L30.3307 18.0846L29.9094 18.5004ZM12.6367 36V36.5919H12.8841L13.0579 36.4158L12.6367 36ZM4.61156 36L4.19029 36.4158L4.36412 36.5919H4.61156V36ZM1.44141 32.7882L1.02013 32.3724L0.609707 32.7882L1.02013 33.204L1.44141 32.7882ZM15.544 18.5004L15.9653 18.9162L16.3757 18.5004L15.9653 18.0846L15.544 18.5004ZM1.86268 4.62846L5.03368 1.41581L4.19114 0.584186L1.02013 3.79683L1.86268 4.62846ZM4.61241 1.59192L12.6358 1.59193L12.6358 0.40808L4.61241 0.408077L4.61241 1.59192ZM12.2145 1.41582L29.4882 18.9162L30.3307 18.0846L13.0571 0.584189L12.2145 1.41582ZM29.4882 18.0846L12.2154 35.5842L13.0579 36.4158L30.3307 18.9162L29.4882 18.0846ZM12.6367 35.4081H4.61156V36.5919H12.6367V35.4081ZM5.03284 35.5842L1.86268 32.3724L1.02013 33.204L4.19029 36.4158L5.03284 35.5842ZM1.86268 33.204L15.9653 18.9162L15.1228 18.0846L1.02013 32.3724L1.86268 33.204ZM15.9653 18.0846L1.86268 3.79683L1.02013 4.62846L15.1228 18.9162L15.9653 18.0846Z" fill="white"/>
</g>
</svg>
