<svg width="161" height="29" viewBox="0 0 161 29" fill="none" xmlns="http://www.w3.org/2000/svg">
<path fill-rule="evenodd" clip-rule="evenodd" d="M3.36547 4.10416V2.70764e-05H16.6223L18.1203 1.44429V3.328H19.9878L21.4858 4.77227V20.7014H4.84329L3.36547 19.2585V17.3734H1.49654L0 15.949V9.78414L1.49941 8.31997H17.3354V4.10416H3.36547ZM17.3354 12.4028H4.1288V16.6186H17.3354V12.4028Z" fill="white"/>
<path fill-rule="evenodd" clip-rule="evenodd" d="M29.1101 1.44286L30.588 0H42.367L43.865 1.44426V3.32798H45.7325L47.2305 4.77224V24.2476L45.7339 25.672H43.865V27.5557L42.367 29H29.1101V24.9172H42.9506V20.7014H30.588L29.1101 19.2585V17.3734H27.2412L25.7447 15.949V4.77224L27.2426 3.32798H29.1101V1.44286ZM43.0801 4.10414H29.8735V16.6186H43.0801V4.10414Z" fill="white"/>
<path fill-rule="evenodd" clip-rule="evenodd" d="M54.855 1.44289L56.3328 2.70764e-05H68.1119L69.6099 1.44429V3.328H71.4774L72.9753 4.77227V12.4028H55.6184V16.6186H71.4774V20.7014H56.3328L54.855 19.2585V17.3734H52.9861L51.4896 15.949V4.77227L52.9875 3.328H54.855V1.44289ZM68.825 4.10416H55.6184V8.31997H68.825V4.10416Z" fill="white"/>
<path d="M80.5998 1.44289L82.0776 2.70764e-05H93.8567L95.3547 1.44429V3.328H97.2221L98.7201 4.77227V20.7014H94.5698V4.10416H81.3631V20.7014H77.2343V4.77227L78.7323 3.328H80.5998V1.44289Z" fill="white"/>
<path d="M102.979 7.63053V2.70764e-05H107.108V8.31997H120.315V2.70764e-05H124.465V7.63054L122.967 9.0748H121.099V11.6266H122.967L124.465 13.0709V20.7014H120.315V12.4028H107.108V20.7014H102.979V13.0709L104.477 11.6266H106.345V9.0748H104.477L102.979 7.63053Z" fill="white"/>
<path d="M128.724 15.949V2.70764e-05H132.853V16.6186H146.059V2.70764e-05H150.21V24.2476L148.713 25.672H146.844V27.5557L145.346 29H132.089V24.9172H146.059V20.7014H133.567L132.089 19.2585V17.3734H130.22L128.724 15.949Z" fill="white"/>
<path d="M154.469 5.53425V0.928348L154.786 0.618908H155.088V0.309467L155.401 2.70764e-05H160.068L160.385 0.309467V0.618908H160.687L161 0.928348V5.53425L160.687 5.84369H160.385V6.15313L160.068 6.4586H155.401L155.088 6.15313V5.84369H154.786L154.469 5.53425ZM155.369 5.55805H160.099V0.904545H155.369V5.55805Z" fill="white"/>
<path fill-rule="evenodd" clip-rule="evenodd" d="M156.264 4.97021V1.49218H158.392L158.669 1.76557V2.02859H158.929L159.206 2.29853V3.08411L158.929 3.35405H158.645V3.64475H158.929L159.206 3.91469V4.97021H158.42V3.89392H157.053V4.97021H156.264ZM157.053 3.10831H158.42V2.27774H157.053V3.10831Z" fill="white"/>
</svg>
