<svg width="280" height="29" viewBox="0 0 280 29" fill="none" xmlns="http://www.w3.org/2000/svg">
<path fill-rule="evenodd" clip-rule="evenodd" d="M3.3624 4.12803V0.0278324H16.6072L18.1038 1.47071V3.35262H19.9696L21.4662 4.7955V20.7093H4.83888L3.3624 19.2679V17.3846H1.49518L0 15.9615V9.80257L1.49805 8.3398H17.3196V4.12803H3.3624ZM17.3196 12.4187H4.12504V16.6305H17.3196V12.4187Z" fill="#0C0424"/>
<path fill-rule="evenodd" clip-rule="evenodd" d="M29.0836 1.46928L30.5601 0.0278053H42.3284L43.825 1.47068V3.35259H45.6908L47.1874 4.79547V24.2522L45.6922 25.6752H43.825V27.5571L42.3284 29H29.0836V24.9211H42.9115V20.7093H30.5601L29.0836 19.2678V17.3845H27.2164L25.7212 15.9615V4.79547L27.2178 3.35259H29.0836V1.46928ZM43.0408 4.12801H29.8462V16.6304H43.0408V4.12801Z" fill="#0C0424"/>
<path fill-rule="evenodd" clip-rule="evenodd" d="M54.805 1.46931L56.2815 0.0278324H68.0498L69.5464 1.47071V3.35262H71.4122L72.9088 4.7955V12.4187H55.5676V16.6305H71.4122V20.7093H56.2815L54.805 19.2679V17.3846H52.9378L51.4426 15.9615V4.7955L52.9392 3.35262H54.805V1.46931ZM68.7622 4.12803H55.5676V8.3398H68.7622V4.12803Z" fill="#0C0424"/>
<path d="M80.5263 1.46931L82.0028 0.0278324H93.7711L95.2677 1.47071V3.35262H97.1335L98.6301 4.7955V20.7093H94.4835V4.12803H81.2889V20.7093H77.1639V4.7955L78.6605 3.35262H80.5263V1.46931Z" fill="#0C0424"/>
<path d="M102.885 7.65102V0.0278324H107.01V8.3398H120.205V0.0278324H124.351V7.65102L122.855 9.0939H120.989V11.6433H122.855L124.351 13.0861V20.7093H120.205V12.4187H107.01V20.7093H102.885V13.0862L104.382 11.6433H106.248V9.0939H104.382L102.885 7.65102Z" fill="#0C0424"/>
<path d="M128.607 15.9615V0.0278324H132.732V16.6305H145.926V0.0278324H150.073V24.2522L148.578 25.6752H146.71V27.5571L145.214 29H131.969V24.9211H145.926V20.7093H133.445L131.969 19.2679V17.3846H130.102L128.607 15.9615Z" fill="#0C0424"/>
<path d="M154.328 5.55675V0.955263L154.645 0.64612H154.946V0.336976L155.259 0.0278324H159.922L160.239 0.336976V0.64612H160.54L160.853 0.955263V5.55675L160.54 5.86589H160.239V6.17504L159.922 6.48022H155.259L154.946 6.17504V5.86589H154.645L154.328 5.55675ZM155.228 5.58053H159.953V0.931483H155.228V5.58053Z" fill="#0C0424"/>
<path fill-rule="evenodd" clip-rule="evenodd" d="M156.121 4.99325V1.51855H158.248L158.524 1.79169V2.05445H158.784L159.06 2.32413V3.10896L158.784 3.37864H158.5V3.66906H158.784L159.06 3.93874V4.99325H158.275V3.91799H156.91V4.99325H156.121ZM156.91 3.13314H158.275V2.30336H156.91V3.13314Z" fill="#0C0424"/>
<path d="M186.555 0H177.121L175.595 1.50708V3.28511H173.856L172.31 4.79305V20.7192H176.624V4.33579H187.051V20.7192H191.387V4.33579H201.814V20.7192H206.129V4.79305L204.582 3.28511H202.843V1.50708L201.317 0H191.883L190.336 1.50793V3.28511H188.102V1.50793L186.555 0Z" fill="#0C0424"/>
<path d="M213.93 0H209.615V15.9464L211.161 17.4341H212.9V19.2122L214.427 20.7192H223.861L225.407 19.2113V17.4341H227.147L228.693 15.9464V0H224.357V16.4045H213.93V0Z" fill="#0C0424"/>
<path d="M249.614 0H236.991L235.464 1.50708V3.28511H233.726L232.179 4.79305V11.0196L233.726 12.5275H246.92V16.4045H233.822V20.7192H246.425L247.971 19.2113V17.4341H249.711L251.256 15.9464V9.7409L249.709 8.21278H236.494V4.33579H249.614V0Z" fill="#0C0424"/>
<path d="M259.058 0H254.743V20.7192H259.058V0Z" fill="#0C0424"/>
<path d="M280 0H267.377L265.85 1.50708V3.28511H264.112L262.565 4.79305V15.9464L264.111 17.4341H265.85V19.2122L267.377 20.7192H280V16.4045H266.88V4.33579H280V0Z" fill="#0C0424"/>
</svg>
