<svg width="148" height="52" viewBox="0 0 148 52" fill="none" xmlns="http://www.w3.org/2000/svg">
<g clip-path="url(#clip0_569_10649)">
<path d="M22.9798 3.97754C10.8237 3.97754 0.96875 13.8746 0.96875 26.0829C0.96875 38.2918 10.8237 48.1881 22.9798 48.1881C35.1373 48.1881 44.9912 38.2918 44.9912 26.0829C44.9912 13.8754 35.1373 3.97859 22.9796 3.97859L22.9798 3.97754ZM33.074 35.8599C32.6797 36.5092 31.8334 36.7151 31.1868 36.3165C26.0188 33.1462 19.513 32.4283 11.8512 34.1863C11.1128 34.3552 10.3769 33.8906 10.2087 33.1489C10.0397 32.4071 10.5004 31.668 11.2406 31.4991C19.6252 29.5753 26.8173 30.4036 32.6193 33.9646C33.2659 34.3631 33.4709 35.2105 33.074 35.8599ZM35.7681 29.8408C35.2713 30.6517 34.2147 30.9078 33.4078 30.4089C27.4912 26.7566 18.4724 25.6989 11.4742 27.8323C10.5667 28.1076 9.60807 27.5939 9.33261 26.684C9.05926 25.7725 9.57101 24.8117 10.477 24.5345C18.4708 22.0986 28.4086 23.2785 35.203 27.4717C36.0099 27.9706 36.2649 29.0315 35.7681 29.8408ZM35.9994 23.5731C28.9053 19.3414 17.201 18.9523 10.4279 21.0168C9.34024 21.3481 8.19004 20.7315 7.86044 19.6392C7.53084 18.5463 8.14431 17.392 9.23273 17.0599C17.0078 14.6895 29.933 15.1474 38.1006 20.0169C39.081 20.6 39.4016 21.8689 38.8208 22.8501C38.2425 23.8326 36.9756 24.1565 36.0005 23.5731H35.9994Z" fill="#1ED760"/>
<path d="M60.8542 24.3843C57.0535 23.4741 56.378 22.8353 56.378 21.493C56.378 20.2249 57.566 19.3715 59.335 19.3715C61.0487 19.3715 62.7466 20.0195 64.5287 21.3536C64.5813 21.394 64.6496 21.4101 64.7153 21.3996C64.7837 21.3895 64.8415 21.3528 64.8809 21.2977L66.7366 18.6706C66.8128 18.5624 66.7918 18.4133 66.6893 18.3307C64.5681 16.622 62.1815 15.7913 59.3902 15.7913C55.2872 15.7913 52.4196 18.2644 52.4196 21.8029C52.4196 25.5975 54.893 26.9411 59.1668 27.9782C62.8018 28.8195 63.4169 29.5243 63.4169 30.784C63.4169 32.1804 62.1763 33.0488 60.1787 33.0488C57.9603 33.0488 56.1493 32.2965 54.1255 30.5385C54.0755 30.4936 54.0072 30.4751 53.9441 30.4778C53.8758 30.483 53.8153 30.5147 53.7732 30.5649L51.6916 33.0515C51.6048 33.1571 51.6153 33.3102 51.7152 33.3999C54.0703 35.5117 56.9668 36.6256 60.0946 36.6256C64.5156 36.6256 67.3726 34.1997 67.3726 30.4435C67.3805 27.274 65.4907 25.5186 60.8621 24.3877L60.8542 24.3843ZM77.3764 20.6201C75.4603 20.6201 73.8885 21.3782 72.59 22.9317V21.1831C72.59 21.0451 72.4797 20.9326 72.343 20.9326H68.9392C68.8025 20.9326 68.6921 21.0451 68.6921 21.1831V40.6116C68.6921 40.7489 68.8025 40.8624 68.9392 40.8624H72.343C72.4797 40.8624 72.59 40.7489 72.59 40.6116V34.4796C73.8885 35.9393 75.4603 36.6547 77.3764 36.6547C80.9379 36.6547 84.5441 33.9015 84.5441 28.6382C84.5493 23.3738 80.9431 20.6198 77.379 20.6198L77.3764 20.6201ZM80.5857 28.6382C80.5857 31.3172 78.9429 33.1887 76.5879 33.1887C74.2617 33.1887 72.5059 31.2327 72.5059 28.6382C72.5059 26.0433 74.2617 24.0878 76.5879 24.0878C78.9035 24.0876 80.5857 26.0011 80.5857 28.6382ZM93.7829 20.6201C89.1963 20.6201 85.6033 24.1668 85.6033 28.6954C85.6033 33.1755 89.1727 36.6837 93.7277 36.6837C98.3301 36.6837 101.934 33.1491 101.934 28.6382C101.934 24.1425 98.3537 20.6201 93.7829 20.6201ZM93.7829 33.2151C91.3438 33.2151 89.5039 31.2459 89.5039 28.6368C89.5039 26.0159 91.2807 24.114 93.7277 24.114C96.1827 24.114 98.0331 26.0824 98.0331 28.6941C98.0331 31.3146 96.2457 33.2151 93.7829 33.2151ZM111.727 20.9326H107.982V17.0876C107.982 16.9498 107.871 16.8374 107.735 16.8374H104.331C104.194 16.8374 104.081 16.9498 104.081 17.0876V20.9326H102.446C102.309 20.9326 102.199 21.0451 102.199 21.1831V24.1203C102.199 24.2581 102.309 24.3708 102.446 24.3708H104.081V31.9718C104.081 35.0418 105.603 36.5992 108.607 36.5992C109.827 36.5992 110.839 36.3458 111.793 35.802C111.872 35.7598 111.919 35.6753 111.919 35.5856V32.7875C111.919 32.703 111.874 32.6212 111.801 32.5763C111.727 32.5288 111.635 32.5262 111.559 32.5658C110.904 32.8957 110.271 33.0488 109.561 33.0488C108.47 33.0488 107.982 32.5499 107.982 31.436V24.3721H111.727C111.864 24.3721 111.974 24.2597 111.974 24.1216V21.1847C111.979 21.0466 111.869 20.9342 111.73 20.9342L111.727 20.9326ZM124.775 20.9477V20.4754C124.775 19.0861 125.305 18.4666 126.493 18.4666C127.203 18.4666 127.774 18.6081 128.412 18.8219C128.491 18.8467 128.573 18.8343 128.636 18.7871C128.701 18.7398 128.738 18.664 128.738 18.5838V15.7039C128.738 15.5938 128.67 15.4964 128.562 15.4639C127.889 15.2625 127.027 15.0558 125.734 15.0558C122.593 15.0558 120.929 16.8334 120.929 20.1945V20.9178H119.294C119.158 20.9178 119.045 21.0303 119.045 21.1681V24.1203C119.045 24.2581 119.158 24.3708 119.294 24.3708H120.929V36.0924C120.929 36.2323 121.042 36.3432 121.179 36.3432H124.58C124.719 36.3432 124.83 36.2323 124.83 36.0924V24.3716H128.007L132.875 36.0924C132.323 37.3225 131.779 37.568 131.038 37.568C130.439 37.568 129.805 37.3885 129.161 37.0322C129.101 37.0005 129.027 36.9952 128.964 37.0137C128.898 37.0374 128.843 37.0849 128.817 37.1483L127.663 39.6903C127.608 39.8118 127.655 39.9517 127.771 40.015C128.975 40.6697 130.06 40.9495 131.403 40.9495C133.916 40.9495 135.307 39.7722 136.529 36.6098L142.432 21.2898C142.464 21.2127 142.453 21.1256 142.406 21.0572C142.361 20.9894 142.285 20.9484 142.204 20.9484H138.66C138.553 20.9484 138.458 21.0163 138.424 21.1163L134.794 31.5257L130.82 21.1095C130.783 21.0126 130.691 20.9484 130.589 20.9484H124.775V20.9477ZM117.21 20.9326H113.806C113.669 20.9326 113.556 21.0451 113.556 21.1831V36.0924C113.556 36.2323 113.669 36.3432 113.806 36.3432H117.21C117.347 36.3432 117.46 36.2323 117.46 36.0924V21.1842C117.46 21.0461 117.349 20.9337 117.21 20.9337V20.9326ZM115.528 14.1436C114.179 14.1436 113.086 15.2396 113.086 16.5935C113.086 17.9482 114.179 19.0455 115.528 19.0455C116.876 19.0455 117.967 17.9482 117.967 16.5935C117.967 15.2398 116.874 14.1436 115.528 14.1436ZM145.339 25.7266C143.993 25.7266 142.945 24.6403 142.945 23.3213C142.945 22.0022 144.007 20.9036 145.352 20.9036C146.698 20.9036 147.747 21.9895 147.747 23.3075C147.747 24.6266 146.685 25.7266 145.339 25.7266ZM145.352 21.1427C144.125 21.1427 143.197 22.1221 143.197 23.3213C143.197 24.52 144.12 25.4861 145.339 25.4861C146.567 25.4861 147.494 24.5076 147.494 23.3075C147.494 22.1089 146.572 21.1427 145.352 21.1427ZM145.883 23.5549L146.561 24.5073H145.988L145.379 23.6335H144.856V24.5073H144.377V21.9827H145.497C146.083 21.9827 146.467 22.2828 146.467 22.7881C146.469 23.202 146.23 23.4548 145.886 23.5549H145.883ZM145.478 22.4159H144.856V23.2144H145.478C145.789 23.2144 145.975 23.0615 145.975 22.8147C145.975 22.555 145.789 22.4159 145.478 22.4159Z" fill="#03000B"/>
</g>
<defs>
<clipPath id="clip0_569_10649">
<rect width="146.738" height="50.5263" fill="white" transform="translate(0.892578 0.736328)"/>
</clipPath>
</defs>
</svg>
