<svg width="682" height="182" viewBox="0 0 682 182" fill="none" xmlns="http://www.w3.org/2000/svg">
<path fill-rule="evenodd" clip-rule="evenodd" d="M10.5662 160.414V182H0V118.994L3.83471 115.242H8.62679V110.333L12.4098 106.586H36.8699L40.7047 110.337V115.242H45.4967L49.3314 118.994V148.058L45.5005 151.758H40.7047V156.663L36.8699 160.414H10.5662ZM10.5662 117.243V149.812H38.71V117.243H10.5662Z" fill="white"/>
<path fill-rule="evenodd" clip-rule="evenodd" d="M64.4798 151.758H59.6839L55.853 148.058V132.03L59.6913 128.227H94.5629V117.243H64.4798V106.586H92.7229L96.5576 110.337V115.242H101.35L105.184 118.994V160.414H68.2628L64.4798 156.667V151.758ZM66.4191 138.829V149.812H94.5629V138.829H66.4191Z" fill="white"/>
<path fill-rule="evenodd" clip-rule="evenodd" d="M120.333 151.758H115.537L111.706 148.058V118.994L115.541 115.242H120.333V110.333L124.116 106.586H148.576L152.411 110.337V115.242H157.203L161.037 118.994V169.644L157.206 173.344H152.411V178.248L148.576 182H120.333V171.398H150.084V160.414H124.116L120.333 156.667V151.758ZM122.272 117.243V149.812H150.416V117.243H122.272Z" fill="white"/>
<path fill-rule="evenodd" clip-rule="evenodd" d="M176.186 151.758H171.39L167.559 148.058V118.994L171.394 115.242H176.186V110.333L179.969 106.586H204.429L208.264 110.337V115.242H213.056L216.89 118.994V138.829H178.125V149.812H212.577V160.414H179.969L176.186 156.667V151.758ZM178.125 117.243V128.227H206.269V117.243H178.125Z" fill="white"/>
<path d="M288.518 117.243H260.375V160.414H249.808V118.994L253.643 115.242H258.435V110.333L262.218 106.586H286.678L290.513 110.337V115.242H295.305L299.14 118.994V160.414H288.518V117.243Z" fill="white"/>
<path fill-rule="evenodd" clip-rule="evenodd" d="M314.288 151.758H309.492L305.661 148.058V118.994L309.496 115.242H314.288V110.333L318.071 106.586H342.531L346.366 110.337V115.242H351.158L354.993 118.994V148.058L351.162 151.758H346.366V156.663L342.531 160.414H318.071L314.288 156.667V151.758ZM316.228 117.243V149.812H344.371V117.243H316.228Z" fill="white"/>
<path d="M370.141 151.758H365.345L361.514 148.058V89.3282H372.081V106.586H393.592V117.243H372.081V149.812H393.592V160.414H373.924L370.141 156.667V151.758Z" fill="white"/>
<path d="M458.588 117.243H437.076V160.414H426.51V97.4081L430.345 93.6564H435.137V88.748L438.92 85H458.588V95.6579H437.076V106.586H458.588V117.243Z" fill="white"/>
<path fill-rule="evenodd" clip-rule="evenodd" d="M473.736 151.758H468.941L465.11 148.058V118.994L468.944 115.242H473.736V110.333L477.52 106.586H501.98L505.814 110.337V115.242H510.606L514.441 118.994V148.058L510.61 151.758H505.814V156.663L501.98 160.414H477.52L473.736 156.667V151.758ZM475.676 117.243V149.812H503.82V117.243H475.676Z" fill="white"/>
<path d="M529.589 151.758H524.794L520.963 148.058V106.586H531.529V149.812H559.673V106.586H570.294V148.058L566.463 151.758H561.667V156.663L557.833 160.414H533.372L529.589 156.667V151.758Z" fill="white"/>
<path d="M615.526 117.243H587.382V160.414H576.816V118.994L580.65 115.242H585.442V110.333L589.225 106.586H613.686L617.52 110.337V115.242H622.312L626.147 118.994V160.414H615.526V117.243Z" fill="white"/>
<path fill-rule="evenodd" clip-rule="evenodd" d="M641.295 151.758H636.5L632.669 148.058V118.994L636.503 115.242H641.295V110.333L645.078 106.586H671.379V85H682V160.414H645.078L641.295 156.667V151.758ZM643.235 117.243V149.812H671.379V117.243H643.235Z" fill="white"/>
<path d="M0 42.6122V0H12.4968V42.9986H37.9155V0H50.4123V42.9986H63.2945V55.5283H50.4123V77H37.9155V55.5283H12.9373L8.58813 51.2229V46.9176H4.40417L0 42.6122Z" fill="white"/>
<path d="M69.8088 64.1391V12.9161L74.1028 8.61075H78.3969V4.30538L82.6359 0H112.309L116.603 4.30538V8.61075H120.897L125.191 12.9161V64.1391L120.897 68.3893H116.603V72.6946L112.309 77H82.6359L78.3969 72.6946V68.3893H74.1028L69.8088 64.1391ZM82.3056 64.4703H112.639V12.5849H82.3056V64.4703Z" fill="white"/>
<path d="M131.706 42.6122V0H144.202V42.9986H169.621V0H182.118V42.9986H195V55.5283H182.118V77H169.621V55.5283H144.643L140.294 51.2229V46.9176H136.11L131.706 42.6122Z" fill="white"/>
</svg>
