<svg width="176" height="18" viewBox="0 0 176 18" fill="none" xmlns="http://www.w3.org/2000/svg">
<path d="M0 16.7678V0.236166H7.55731C9.03729 0.236166 10.2732 0.755731 11.2651 1.79486C12.257 2.81825 12.753 4.14865 12.753 5.78607C12.753 7.32902 12.2806 8.58857 11.336 9.56473C10.4071 10.5251 9.26558 11.0368 7.91156 11.0998L13.2253 16.7678H9.32856L4.01482 11.0998H3.07016V16.7678H0ZM3.07016 8.26581H7.43923C8.03752 8.26581 8.55708 8.02965 8.99793 7.55731C9.45451 7.06924 9.68281 6.47882 9.68281 5.78607C9.68281 5.03034 9.46239 4.40843 9.02154 3.92036C8.5807 3.43228 8.05326 3.18824 7.43923 3.18824H3.07016V8.26581Z" fill="white"/>
<path d="M16.4145 16.7678V0.236166H27.5143V3.07016H19.4846V7.08498H27.0419V9.91897H19.4846V13.9338H27.5143V16.7678H16.4145Z" fill="white"/>
<path d="M31.2837 16.7678V0.236166H38.7229C40.2816 0.236166 41.5333 0.739987 42.478 1.74763C43.4384 2.75527 43.9186 4.10142 43.9186 5.78607C43.9186 7.47072 43.4384 8.81687 42.478 9.82451C41.5333 10.8322 40.2816 11.336 38.7229 11.336H34.3539V16.7678H31.2837ZM34.3539 8.3839H38.6049C39.2819 8.3839 39.825 8.1556 40.2344 7.69901C40.6437 7.24243 40.8484 6.60478 40.8484 5.78607C40.8484 4.96736 40.6437 4.32971 40.2344 3.87312C39.825 3.41654 39.2819 3.18824 38.6049 3.18824H34.3539V8.3839Z" fill="white"/>
<path d="M47.3522 16.7678V0.236166H50.4224V16.7678H47.3522Z" fill="white"/>
<path d="M54.6798 16.7678V0.236166H58.8127L64.835 11.6902H65.3073V0.236166H68.3775V16.7678H64.2446L58.2223 5.31374H57.75V16.7678H54.6798Z" fill="white"/>
<path d="M72.2853 16.7678V14.0519H75.0012V16.7678H72.2853Z" fill="white"/>
<path d="M78.0796 16.7678L84.338 0.236166H87.172L93.4304 16.7678H91.423L89.8879 12.5168H81.6221L80.0871 16.7678H78.0796ZM82.3306 10.7456H89.1794L85.9912 2.24358H85.5189L82.3306 10.7456Z" fill="white"/>
<path d="M108.683 16.7678L108.447 14.4061H108.329C107.967 14.8627 107.487 15.2957 106.889 15.705C105.645 16.571 104.275 17.004 102.779 17.004C100.559 17.004 98.6857 16.2089 97.1585 14.6187C95.6313 13.0285 94.8677 10.9896 94.8677 8.50198C94.8677 6.01436 95.6313 3.97546 97.1585 2.38528C98.6857 0.795092 100.559 0 102.779 0C104.448 0 105.952 0.472332 107.29 1.417C108.644 2.36166 109.581 3.62121 110.1 5.19565H108.093C107.621 4.14078 106.904 3.30633 105.944 2.69229C104.983 2.07826 103.929 1.77125 102.779 1.77125C101.095 1.77125 99.6698 2.40102 98.5047 3.66057C97.3396 4.90438 96.757 6.51818 96.757 8.50198C96.757 10.4858 97.3396 12.1074 98.5047 13.367C99.6698 14.6108 101.095 15.2327 102.779 15.2327C104.244 15.2327 105.535 14.7131 106.652 13.674C107.77 12.6349 108.329 11.4619 108.329 10.1551V9.91897H103.37V8.26581H110.219V16.7678H108.683Z" fill="white"/>
<path d="M114.458 16.7678V0.236166H125.086V2.00741H116.348V7.55731H124.614V9.32856H116.348V14.9965H125.086V16.7678H114.458Z" fill="white"/>
<path d="M128.982 16.7678V0.236166H132.17L139.609 14.5242H140.082V0.236166H141.971V16.7678H138.783L131.343 2.47974H130.871V16.7678H128.982Z" fill="white"/>
<path d="M158.974 11.336H160.981C160.509 13.0836 159.612 14.4691 158.289 15.4925C156.982 16.5001 155.439 17.004 153.66 17.004C151.44 17.004 149.567 16.2089 148.039 14.6187C146.512 13.0285 145.749 10.9896 145.749 8.50198C145.749 6.01436 146.512 3.97546 148.039 2.38528C149.567 0.795092 151.44 0 153.66 0C155.424 0 156.966 0.503821 158.289 1.51146C159.612 2.50336 160.509 3.84951 160.981 5.5499H158.974C158.565 4.36907 157.888 3.44803 156.943 2.78676C155.998 2.10975 154.904 1.77125 153.66 1.77125C151.975 1.77125 150.551 2.40102 149.386 3.66057C148.22 4.90438 147.638 6.51818 147.638 8.50198C147.638 10.4858 148.22 12.1074 149.386 13.367C150.551 14.6108 151.975 15.2327 153.66 15.2327C154.904 15.2327 155.998 14.8942 156.943 14.2172C157.888 13.5244 158.565 12.564 158.974 11.336Z" fill="white"/>
<path d="M168.088 16.7678V10.5094L162.066 0.236166H164.074L168.797 8.3839H169.269L173.993 0.236166H176L169.978 10.5094V16.7678H168.088Z" fill="white"/>
</svg>
